<svg xmlns="http://www.w3.org/2000/svg" version="1.1" xmlns:xlink="http://www.w3.org/1999/xlink" xmlns:svgjs="http://svgjs.dev/svgjs" viewBox="0 0 2400 800" opacity="1"><g fill="hsl(32, 100%, 51%)" transform="matrix(1,0,0,1,11.2362060546875,132.00286483764648)"><path d="M-10,10C12.083333333333336,14.791666666666668,53.91666666666667,40.083333333333336,96,33C138.08333333333331,25.916666666666664,152,-24.625,192,-24C232,-23.375,248,32.666666666666664,288,36C328,39.333333333333336,344,-7.166666666666667,384,-8C424,-8.833333333333334,440,33.875,480,32C520,30.125,536,-17.625,576,-17C616,-16.375,632,30.625,672,35C712,39.375,728,2.3333333333333335,768,4C808,5.666666666666666,824,46.333333333333336,864,43C904,39.666666666666664,920,-10.541666666666666,960,-12C1000,-13.458333333333334,1016,31.625,1056,36C1096,40.375,1112,8.375,1152,9C1192,9.625,1208,37.333333333333336,1248,39C1288,40.666666666666664,1304,15.958333333333334,1344,17C1384,18.041666666666668,1400,45.666666666666664,1440,44C1480,42.333333333333336,1496,8.791666666666666,1536,9C1576,9.208333333333334,1592,44.791666666666664,1632,45C1672,45.208333333333336,1688,6.041666666666667,1728,10C1768,13.958333333333332,1784,59.833333333333336,1824,64C1864,68.16666666666667,1880,28.75,1920,30C1960,31.25,1976,69.375,2016,70C2056,70.625,2072,34.25,2112,33C2152,31.75,2168,66.29166666666667,2208,64C2248,61.708333333333336,2264,18.458333333333332,2304,22C2344,25.541666666666668,2327.9166666666665,2.25,2400,81C2472.0833333333335,159.75,3254.1666666666665,229.375,2650,400C2045.8333333333335,570.625,156.25,795.8333333333334,-500,900" transform="matrix(1,0,0,1,0,46)" opacity="0.05"></path><path d="M-10,10C12.083333333333336,14.791666666666668,53.91666666666667,40.083333333333336,96,33C138.08333333333331,25.916666666666664,152,-24.625,192,-24C232,-23.375,248,32.666666666666664,288,36C328,39.333333333333336,344,-7.166666666666667,384,-8C424,-8.833333333333334,440,33.875,480,32C520,30.125,536,-17.625,576,-17C616,-16.375,632,30.625,672,35C712,39.375,728,2.3333333333333335,768,4C808,5.666666666666666,824,46.333333333333336,864,43C904,39.666666666666664,920,-10.541666666666666,960,-12C1000,-13.458333333333334,1016,31.625,1056,36C1096,40.375,1112,8.375,1152,9C1192,9.625,1208,37.333333333333336,1248,39C1288,40.666666666666664,1304,15.958333333333334,1344,17C1384,18.041666666666668,1400,45.666666666666664,1440,44C1480,42.333333333333336,1496,8.791666666666666,1536,9C1576,9.208333333333334,1592,44.791666666666664,1632,45C1672,45.208333333333336,1688,6.041666666666667,1728,10C1768,13.958333333333332,1784,59.833333333333336,1824,64C1864,68.16666666666667,1880,28.75,1920,30C1960,31.25,1976,69.375,2016,70C2056,70.625,2072,34.25,2112,33C2152,31.75,2168,66.29166666666667,2208,64C2248,61.708333333333336,2264,18.458333333333332,2304,22C2344,25.541666666666668,2327.9166666666665,2.25,2400,81C2472.0833333333335,159.75,3254.1666666666665,229.375,2650,400C2045.8333333333335,570.625,156.25,795.8333333333334,-500,900" transform="matrix(1,0,0,1,0,92)" opacity="0.17"></path><path d="M-10,10C12.083333333333336,14.791666666666668,53.91666666666667,40.083333333333336,96,33C138.08333333333331,25.916666666666664,152,-24.625,192,-24C232,-23.375,248,32.666666666666664,288,36C328,39.333333333333336,344,-7.166666666666667,384,-8C424,-8.833333333333334,440,33.875,480,32C520,30.125,536,-17.625,576,-17C616,-16.375,632,30.625,672,35C712,39.375,728,2.3333333333333335,768,4C808,5.666666666666666,824,46.333333333333336,864,43C904,39.666666666666664,920,-10.541666666666666,960,-12C1000,-13.458333333333334,1016,31.625,1056,36C1096,40.375,1112,8.375,1152,9C1192,9.625,1208,37.333333333333336,1248,39C1288,40.666666666666664,1304,15.958333333333334,1344,17C1384,18.041666666666668,1400,45.666666666666664,1440,44C1480,42.333333333333336,1496,8.791666666666666,1536,9C1576,9.208333333333334,1592,44.791666666666664,1632,45C1672,45.208333333333336,1688,6.041666666666667,1728,10C1768,13.958333333333332,1784,59.833333333333336,1824,64C1864,68.16666666666667,1880,28.75,1920,30C1960,31.25,1976,69.375,2016,70C2056,70.625,2072,34.25,2112,33C2152,31.75,2168,66.29166666666667,2208,64C2248,61.708333333333336,2264,18.458333333333332,2304,22C2344,25.541666666666668,2327.9166666666665,2.25,2400,81C2472.0833333333335,159.75,3254.1666666666665,229.375,2650,400C2045.8333333333335,570.625,156.25,795.8333333333334,-500,900" transform="matrix(1,0,0,1,0,138)" opacity="0.29"></path><path d="M-10,10C12.083333333333336,14.791666666666668,53.91666666666667,40.083333333333336,96,33C138.08333333333331,25.916666666666664,152,-24.625,192,-24C232,-23.375,248,32.666666666666664,288,36C328,39.333333333333336,344,-7.166666666666667,384,-8C424,-8.833333333333334,440,33.875,480,32C520,30.125,536,-17.625,576,-17C616,-16.375,632,30.625,672,35C712,39.375,728,2.3333333333333335,768,4C808,5.666666666666666,824,46.333333333333336,864,43C904,39.666666666666664,920,-10.541666666666666,960,-12C1000,-13.458333333333334,1016,31.625,1056,36C1096,40.375,1112,8.375,1152,9C1192,9.625,1208,37.333333333333336,1248,39C1288,40.666666666666664,1304,15.958333333333334,1344,17C1384,18.041666666666668,1400,45.666666666666664,1440,44C1480,42.333333333333336,1496,8.791666666666666,1536,9C1576,9.208333333333334,1592,44.791666666666664,1632,45C1672,45.208333333333336,1688,6.041666666666667,1728,10C1768,13.958333333333332,1784,59.833333333333336,1824,64C1864,68.16666666666667,1880,28.75,1920,30C1960,31.25,1976,69.375,2016,70C2056,70.625,2072,34.25,2112,33C2152,31.75,2168,66.29166666666667,2208,64C2248,61.708333333333336,2264,18.458333333333332,2304,22C2344,25.541666666666668,2327.9166666666665,2.25,2400,81C2472.0833333333335,159.75,3254.1666666666665,229.375,2650,400C2045.8333333333335,570.625,156.25,795.8333333333334,-500,900" transform="matrix(1,0,0,1,0,184)" opacity="0.41"></path><path d="M-10,10C12.083333333333336,14.791666666666668,53.91666666666667,40.083333333333336,96,33C138.08333333333331,25.916666666666664,152,-24.625,192,-24C232,-23.375,248,32.666666666666664,288,36C328,39.333333333333336,344,-7.166666666666667,384,-8C424,-8.833333333333334,440,33.875,480,32C520,30.125,536,-17.625,576,-17C616,-16.375,632,30.625,672,35C712,39.375,728,2.3333333333333335,768,4C808,5.666666666666666,824,46.333333333333336,864,43C904,39.666666666666664,920,-10.541666666666666,960,-12C1000,-13.458333333333334,1016,31.625,1056,36C1096,40.375,1112,8.375,1152,9C1192,9.625,1208,37.333333333333336,1248,39C1288,40.666666666666664,1304,15.958333333333334,1344,17C1384,18.041666666666668,1400,45.666666666666664,1440,44C1480,42.333333333333336,1496,8.791666666666666,1536,9C1576,9.208333333333334,1592,44.791666666666664,1632,45C1672,45.208333333333336,1688,6.041666666666667,1728,10C1768,13.958333333333332,1784,59.833333333333336,1824,64C1864,68.16666666666667,1880,28.75,1920,30C1960,31.25,1976,69.375,2016,70C2056,70.625,2072,34.25,2112,33C2152,31.75,2168,66.29166666666667,2208,64C2248,61.708333333333336,2264,18.458333333333332,2304,22C2344,25.541666666666668,2327.9166666666665,2.25,2400,81C2472.0833333333335,159.75,3254.1666666666665,229.375,2650,400C2045.8333333333335,570.625,156.25,795.8333333333334,-500,900" transform="matrix(1,0,0,1,0,230)" opacity="0.53"></path><path d="M-10,10C12.083333333333336,14.791666666666668,53.91666666666667,40.083333333333336,96,33C138.08333333333331,25.916666666666664,152,-24.625,192,-24C232,-23.375,248,32.666666666666664,288,36C328,39.333333333333336,344,-7.166666666666667,384,-8C424,-8.833333333333334,440,33.875,480,32C520,30.125,536,-17.625,576,-17C616,-16.375,632,30.625,672,35C712,39.375,728,2.3333333333333335,768,4C808,5.666666666666666,824,46.333333333333336,864,43C904,39.666666666666664,920,-10.541666666666666,960,-12C1000,-13.458333333333334,1016,31.625,1056,36C1096,40.375,1112,8.375,1152,9C1192,9.625,1208,37.333333333333336,1248,39C1288,40.666666666666664,1304,15.958333333333334,1344,17C1384,18.041666666666668,1400,45.666666666666664,1440,44C1480,42.333333333333336,1496,8.791666666666666,1536,9C1576,9.208333333333334,1592,44.791666666666664,1632,45C1672,45.208333333333336,1688,6.041666666666667,1728,10C1768,13.958333333333332,1784,59.833333333333336,1824,64C1864,68.16666666666667,1880,28.75,1920,30C1960,31.25,1976,69.375,2016,70C2056,70.625,2072,34.25,2112,33C2152,31.75,2168,66.29166666666667,2208,64C2248,61.708333333333336,2264,18.458333333333332,2304,22C2344,25.541666666666668,2327.9166666666665,2.25,2400,81C2472.0833333333335,159.75,3254.1666666666665,229.375,2650,400C2045.8333333333335,570.625,156.25,795.8333333333334,-500,900" transform="matrix(1,0,0,1,0,276)" opacity="0.64"></path><path d="M-10,10C12.083333333333336,14.791666666666668,53.91666666666667,40.083333333333336,96,33C138.08333333333331,25.916666666666664,152,-24.625,192,-24C232,-23.375,248,32.666666666666664,288,36C328,39.333333333333336,344,-7.166666666666667,384,-8C424,-8.833333333333334,440,33.875,480,32C520,30.125,536,-17.625,576,-17C616,-16.375,632,30.625,672,35C712,39.375,728,2.3333333333333335,768,4C808,5.666666666666666,824,46.333333333333336,864,43C904,39.666666666666664,920,-10.541666666666666,960,-12C1000,-13.458333333333334,1016,31.625,1056,36C1096,40.375,1112,8.375,1152,9C1192,9.625,1208,37.333333333333336,1248,39C1288,40.666666666666664,1304,15.958333333333334,1344,17C1384,18.041666666666668,1400,45.666666666666664,1440,44C1480,42.333333333333336,1496,8.791666666666666,1536,9C1576,9.208333333333334,1592,44.791666666666664,1632,45C1672,45.208333333333336,1688,6.041666666666667,1728,10C1768,13.958333333333332,1784,59.833333333333336,1824,64C1864,68.16666666666667,1880,28.75,1920,30C1960,31.25,1976,69.375,2016,70C2056,70.625,2072,34.25,2112,33C2152,31.75,2168,66.29166666666667,2208,64C2248,61.708333333333336,2264,18.458333333333332,2304,22C2344,25.541666666666668,2327.9166666666665,2.25,2400,81C2472.0833333333335,159.75,3254.1666666666665,229.375,2650,400C2045.8333333333335,570.625,156.25,795.8333333333334,-500,900" transform="matrix(1,0,0,1,0,322)" opacity="0.76"></path><path d="M-10,10C12.083333333333336,14.791666666666668,53.91666666666667,40.083333333333336,96,33C138.08333333333331,25.916666666666664,152,-24.625,192,-24C232,-23.375,248,32.666666666666664,288,36C328,39.333333333333336,344,-7.166666666666667,384,-8C424,-8.833333333333334,440,33.875,480,32C520,30.125,536,-17.625,576,-17C616,-16.375,632,30.625,672,35C712,39.375,728,2.3333333333333335,768,4C808,5.666666666666666,824,46.333333333333336,864,43C904,39.666666666666664,920,-10.541666666666666,960,-12C1000,-13.458333333333334,1016,31.625,1056,36C1096,40.375,1112,8.375,1152,9C1192,9.625,1208,37.333333333333336,1248,39C1288,40.666666666666664,1304,15.958333333333334,1344,17C1384,18.041666666666668,1400,45.666666666666664,1440,44C1480,42.333333333333336,1496,8.791666666666666,1536,9C1576,9.208333333333334,1592,44.791666666666664,1632,45C1672,45.208333333333336,1688,6.041666666666667,1728,10C1768,13.958333333333332,1784,59.833333333333336,1824,64C1864,68.16666666666667,1880,28.75,1920,30C1960,31.25,1976,69.375,2016,70C2056,70.625,2072,34.25,2112,33C2152,31.75,2168,66.29166666666667,2208,64C2248,61.708333333333336,2264,18.458333333333332,2304,22C2344,25.541666666666668,2327.9166666666665,2.25,2400,81C2472.0833333333335,159.75,3254.1666666666665,229.375,2650,400C2045.8333333333335,570.625,156.25,795.8333333333334,-500,900" transform="matrix(1,0,0,1,0,368)" opacity="0.88"></path><path d="M-10,10C12.083333333333336,14.791666666666668,53.91666666666667,40.083333333333336,96,33C138.08333333333331,25.916666666666664,152,-24.625,192,-24C232,-23.375,248,32.666666666666664,288,36C328,39.333333333333336,344,-7.166666666666667,384,-8C424,-8.833333333333334,440,33.875,480,32C520,30.125,536,-17.625,576,-17C616,-16.375,632,30.625,672,35C712,39.375,728,2.3333333333333335,768,4C808,5.666666666666666,824,46.333333333333336,864,43C904,39.666666666666664,920,-10.541666666666666,960,-12C1000,-13.458333333333334,1016,31.625,1056,36C1096,40.375,1112,8.375,1152,9C1192,9.625,1208,37.333333333333336,1248,39C1288,40.666666666666664,1304,15.958333333333334,1344,17C1384,18.041666666666668,1400,45.666666666666664,1440,44C1480,42.333333333333336,1496,8.791666666666666,1536,9C1576,9.208333333333334,1592,44.791666666666664,1632,45C1672,45.208333333333336,1688,6.041666666666667,1728,10C1768,13.958333333333332,1784,59.833333333333336,1824,64C1864,68.16666666666667,1880,28.75,1920,30C1960,31.25,1976,69.375,2016,70C2056,70.625,2072,34.25,2112,33C2152,31.75,2168,66.29166666666667,2208,64C2248,61.708333333333336,2264,18.458333333333332,2304,22C2344,25.541666666666668,2327.9166666666665,2.25,2400,81C2472.0833333333335,159.75,3254.1666666666665,229.375,2650,400C2045.8333333333335,570.625,156.25,795.8333333333334,-500,900" transform="matrix(1,0,0,1,0,414)" opacity="1.00"></path></g></svg>